<svg width="88" height="79" viewBox="0 0 88 79" fill="none" xmlns="http://www.w3.org/2000/svg">
<path d="M0.790833 -0.0078125H87.7235V34.9679C87.7235 58.8612 68.1504 78.2305 44.2572 78.2305C20.3639 78.2305 0.790833 58.8612 0.790833 34.9679V-0.0078125Z" fill="#FCB236"/>
<path d="M46.5342 58.6729C46.5342 57.4153 45.5147 56.3959 44.2572 56.3959C42.9997 56.3959 41.9802 57.4153 41.9802 58.6729L46.5342 58.6729ZM42.6471 61.3696C43.5364 62.2588 44.9781 62.2588 45.8673 61.3696L60.3579 46.879C61.2471 45.9898 61.2471 44.5481 60.3579 43.6588C59.4687 42.7696 58.027 42.7696 57.1377 43.6588L44.2572 56.5394L31.3767 43.6588C30.4874 42.7696 29.0457 42.7696 28.1565 43.6588C27.2673 44.5481 27.2673 45.9898 28.1565 46.879L42.6471 61.3696ZM41.9802 58.6729L41.9802 59.7595L46.5342 59.7595L46.5342 58.6729L41.9802 58.6729Z" fill="white"/>
<path d="M46.5342 7.59961C46.5342 6.34207 45.5147 5.32263 44.2572 5.32263C42.9997 5.32263 41.9802 6.34207 41.9802 7.59961L46.5342 7.59961ZM42.6471 42.8956C43.5364 43.7849 44.9781 43.7849 45.8673 42.8956L60.3579 28.405C61.2471 27.5158 61.2471 26.0741 60.3579 25.1849C59.4687 24.2957 58.027 24.2957 57.1377 25.1849L44.2572 38.0654L31.3767 25.1849C30.4874 24.2957 29.0457 24.2957 28.1565 25.1849C27.2673 26.0741 27.2673 27.5158 28.1565 28.405L42.6471 42.8956ZM41.9802 7.59961L41.9802 41.2856L46.5342 41.2856L46.5342 7.59961L41.9802 7.59961Z" fill="white"/>
</svg>
