<svg width="111" height="127" viewBox="0 0 111 127" fill="none" xmlns="http://www.w3.org/2000/svg">
<path d="M28.5521 16.0447C26.6353 30.8315 27.9409 48.0773 38.4435 59.682C41.1037 62.6214 44.6228 64.86 48.4707 66.2363M48.4707 66.2363C54.3314 68.3326 60.9549 68.4287 66.4688 65.9539C75.0952 62.0821 82.1945 54.5285 80.801 44.582C80.0747 39.3976 77.1674 35.1876 71.5902 34.8649C63.0695 34.372 55.3901 43.7022 52.5238 50.7509C50.542 55.6244 49.1966 60.8522 48.4707 66.2363ZM48.4707 66.2363C45.92 85.1548 51.0189 106.003 63.0413 120.188M46.6068 113.255C50.2526 115.283 58.7163 119.655 63.4041 120.917C63.4703 116.745 63.9156 107.229 65.167 102.539" stroke="url(#paint0_linear_431_1240)" stroke-opacity="0.6" stroke-width="3" stroke-linecap="round" stroke-dasharray="3.11 3.11"/>
<defs>
<linearGradient id="paint0_linear_431_1240" x1="82.295" y1="110.01" x2="28.171" y2="16.2648" gradientUnits="userSpaceOnUse">
<stop offset="0.5" stop-color="#F3808E"/>
<stop offset="0.8" stop-color="#78AAC5"/>
</linearGradient>
</defs>
</svg>
