<svg width="528" height="94" viewBox="0 0 528 94" fill="none" xmlns="http://www.w3.org/2000/svg">
<path d="M341.327 1.98633L342.024 0.887416L341.705 0.685504H341.327V1.98633ZM416.627 49.6832L415.93 50.7821L416.249 50.984H416.627V49.6832ZM513.696 49.6832C513.696 53.5148 516.802 56.6209 520.633 56.6209C524.465 56.6209 527.571 53.5148 527.571 49.6832C527.571 45.8516 524.465 42.7455 520.633 42.7455C516.802 42.7455 513.696 45.8516 513.696 49.6832ZM0.599182 3.28715L341.327 3.28715V0.685504L0.599182 0.685504V3.28715ZM340.631 3.08524L415.93 50.7821L417.323 48.5843L342.024 0.887416L340.631 3.08524ZM416.627 50.984L520.633 50.984V48.3824L416.627 48.3824V50.984Z" fill="url(#paint0_linear_360_797)"/>
<path d="M200.838 84.3721C200.838 89.4809 204.98 93.6224 210.089 93.6224C215.197 93.6224 219.339 89.4809 219.339 84.3721C219.339 79.2633 215.197 75.1218 210.089 75.1218C204.98 75.1218 200.838 79.2633 200.838 84.3721ZM0.599182 86.1065H210.089V82.6376H0.599182V86.1065Z" fill="url(#paint1_linear_360_797)"/>
<defs>
<linearGradient id="paint0_linear_360_797" x1="-176.194" y1="49.6832" x2="-160.73" y2="152.328" gradientUnits="userSpaceOnUse">
<stop offset="0.0216666" stop-color="#78AAC5"/>
<stop offset="0.290913" stop-color="#F3808E"/>
<stop offset="0.590653" stop-color="#FCB236"/>
<stop offset="1" stop-color="#F7EEA6"/>
</linearGradient>
<linearGradient id="paint1_linear_360_797" x1="0.599182" y1="84.8721" x2="210.089" y2="84.8721" gradientUnits="userSpaceOnUse">
<stop stop-color="#78AAC5"/>
<stop offset="1" stop-color="#F3808E"/>
</linearGradient>
</defs>
</svg>
