<svg width="501" height="89" viewBox="0 0 501 89" fill="none" xmlns="http://www.w3.org/2000/svg">
<path d="M176.726 87.2715L176.066 88.3141L176.368 88.5057H176.726V87.2715ZM105.282 42.0162L105.942 40.9735L105.64 40.7819H105.282V42.0162ZM13.1814 42.0162C13.1814 38.3807 10.2342 35.4336 6.59875 35.4336C2.96329 35.4336 0.0161743 38.3807 0.0161743 42.0162C0.0161743 45.6516 2.96329 48.5988 6.59875 48.5988C10.2342 48.5988 13.1814 45.6516 13.1814 42.0162ZM500.013 86.0372L176.726 86.0372V88.5057L500.013 88.5057V86.0372ZM177.387 86.2288L105.942 40.9735L104.621 43.0588L176.066 88.3141L177.387 86.2288ZM105.282 40.7819L6.59875 40.7819V43.2504L105.282 43.2504V40.7819Z" fill="url(#paint0_linear_360_800)"/>
<path d="M310.024 9.10303C310.024 4.25574 306.094 0.326238 301.247 0.326238C296.4 0.326238 292.47 4.25574 292.47 9.10303C292.47 13.9503 296.4 17.8798 301.247 17.8798C306.094 17.8798 310.024 13.9503 310.024 9.10303ZM500.013 7.45738L301.247 7.45738V10.7487L500.013 10.7487V7.45738Z" fill="url(#paint1_linear_360_800)"/>
<defs>
<linearGradient id="paint0_linear_360_800" x1="667.756" y1="42.0162" x2="653.084" y2="-55.3747" gradientUnits="userSpaceOnUse">
<stop offset="0.0216666" stop-color="#78AAC5"/>
<stop offset="0.290913" stop-color="#F3808E"/>
<stop offset="0.590653" stop-color="#FCB236"/>
<stop offset="1" stop-color="#F7EEA6"/>
</linearGradient>
<linearGradient id="paint1_linear_360_800" x1="500.013" y1="8.60303" x2="301.247" y2="8.60303" gradientUnits="userSpaceOnUse">
<stop stop-color="#78AAC5"/>
<stop offset="1" stop-color="#F3808E"/>
</linearGradient>
</defs>
</svg>
