<svg width="402" height="88" viewBox="0 0 402 88" fill="none" xmlns="http://www.w3.org/2000/svg">
<path d="M7.02086 12.3911C3.89308 6.9218 7.84211 0.114258 14.1426 0.114258H388.896C394.954 0.114258 398.922 6.45298 396.276 11.9018L385.426 34.2476C384.246 36.6784 384.338 39.5346 385.673 41.884L395.035 58.3606C398.143 63.8298 394.193 70.6177 387.902 70.6177H329.804H268.152C267.416 70.6177 266.683 70.7167 265.974 70.912L206.438 87.3041C205.026 87.6929 203.536 87.6966 202.122 87.3147L141.34 70.9014C140.643 70.7131 139.924 70.6177 139.202 70.6177H75.4776H15.362C8.80291 70.6177 4.89589 63.3018 8.54387 57.8508L18.9142 42.3546C20.6459 39.7669 20.7635 36.4219 19.2178 33.719L7.02086 12.3911Z" fill="url(#paint0_linear_431_1233)"/>
<path d="M43.3642 48.4097L52.3393 22.3922H58.4857L67.4609 48.4097H62.2923L60.4414 42.822H50.3836L48.4978 48.4097H43.3642ZM51.7456 38.6313H59.0794L54.749 25.6749H56.0761L51.7456 38.6313ZM72.1375 48.4097V43.5205H76.7473V48.4097H72.1375ZM83.5548 48.4097V22.3922H88.3043V48.4097H83.5548ZM95.0897 48.4097V43.5205H99.6995V48.4097H95.0897ZM112.33 48.4097V29.4117H116.905V48.4097H112.33ZM112.33 27.2814V22.3922H116.905V27.2814H112.33ZM128.358 48.8287C126.332 48.8287 124.563 48.3515 123.049 47.3969C121.559 46.4191 120.535 45.1036 119.976 43.4506L123.399 41.8093C123.888 42.8802 124.563 43.7184 125.424 44.3237C126.309 44.929 127.287 45.2317 128.358 45.2317C129.196 45.2317 129.859 45.0454 130.348 44.6729C130.837 44.3004 131.082 43.8115 131.082 43.2062C131.082 42.8337 130.977 42.531 130.767 42.2982C130.581 42.0421 130.313 41.8325 129.964 41.6696C129.638 41.4833 129.277 41.332 128.882 41.2156L125.773 40.3425C124.167 39.8769 122.945 39.1668 122.107 38.2122C121.292 37.2577 120.884 36.1285 120.884 34.8247C120.884 33.6606 121.175 32.6479 121.757 31.7864C122.363 30.9017 123.189 30.2149 124.237 29.726C125.308 29.2371 126.53 28.9926 127.904 28.9926C129.696 28.9926 131.28 29.4233 132.653 30.2847C134.027 31.1462 135.005 32.3568 135.587 33.9167L132.094 35.5581C131.769 34.6967 131.221 34.0098 130.453 33.4976C129.685 32.9854 128.823 32.7293 127.869 32.7293C127.101 32.7293 126.495 32.904 126.053 33.2532C125.61 33.6024 125.389 34.0564 125.389 34.6152C125.389 34.9644 125.482 35.2671 125.669 35.5232C125.855 35.7793 126.111 35.9888 126.437 36.1518C126.786 36.3147 127.182 36.4661 127.624 36.6058L130.663 37.5138C132.223 37.9794 133.422 38.6779 134.26 39.6091C135.121 40.5404 135.552 41.6812 135.552 43.0316C135.552 44.1724 135.249 45.1851 134.644 46.0698C134.039 46.9313 133.2 47.6064 132.129 48.0954C131.058 48.5843 129.801 48.8287 128.358 48.8287ZM153.935 48.6192C151.793 48.6192 150.129 48.0372 148.941 46.8731C147.777 45.6857 147.195 44.021 147.195 41.8791V33.4976H143.913V29.4117H144.262C145.193 29.4117 145.915 29.1672 146.427 28.6783C146.939 28.1894 147.195 27.4793 147.195 26.548V25.0813H151.77V29.4117H156.136V33.4976H151.77V41.6346C151.77 42.2633 151.875 42.7987 152.085 43.2411C152.317 43.6835 152.667 44.021 153.132 44.2539C153.621 44.4867 154.238 44.6031 154.983 44.6031C155.146 44.6031 155.332 44.5914 155.542 44.5682C155.775 44.5449 155.996 44.5216 156.205 44.4983V48.4097C155.879 48.4562 155.507 48.5028 155.088 48.5494C154.669 48.5959 154.285 48.6192 153.935 48.6192ZM159.701 48.4097V21.9731H164.276V33.1484L163.647 32.4849C164.089 31.3441 164.811 30.4826 165.812 29.9006C166.837 29.2953 168.024 28.9926 169.374 28.9926C170.771 28.9926 172.005 29.2953 173.076 29.9006C174.17 30.5059 175.02 31.3557 175.625 32.45C176.231 33.5209 176.533 34.7665 176.533 36.1867V48.4097H171.959V37.2693C171.959 36.4312 171.796 35.7094 171.47 35.1041C171.144 34.4988 170.69 34.0331 170.108 33.7072C169.549 33.3579 168.885 33.1833 168.117 33.1833C167.372 33.1833 166.709 33.3579 166.126 33.7072C165.544 34.0331 165.09 34.4988 164.764 35.1041C164.439 35.7094 164.276 36.4312 164.276 37.2693V48.4097H159.701ZM189.412 48.8287C187.456 48.8287 185.745 48.3864 184.278 47.5017C182.812 46.617 181.671 45.4179 180.856 43.9046C180.041 42.3913 179.634 40.715 179.634 38.8757C179.634 36.9666 180.041 35.2787 180.856 33.8119C181.694 32.3219 182.823 31.1462 184.243 30.2847C185.687 29.4233 187.293 28.9926 189.063 28.9926C190.553 28.9926 191.857 29.2371 192.974 29.726C194.115 30.2149 195.081 30.8901 195.873 31.7515C196.664 32.6129 197.27 33.6024 197.689 34.7199C198.108 35.8142 198.317 37.0016 198.317 38.2821C198.317 38.608 198.294 38.9456 198.247 39.2948C198.224 39.6441 198.166 39.9467 198.073 40.2028H183.405V36.7105H195.489L193.323 38.3519C193.533 37.2809 193.475 36.3264 193.149 35.4882C192.846 34.6501 192.334 33.9866 191.612 33.4976C190.914 33.0087 190.064 32.7643 189.063 32.7643C188.108 32.7643 187.258 33.0087 186.513 33.4976C185.768 33.9633 185.198 34.6617 184.802 35.593C184.43 36.501 184.29 37.6069 184.383 38.9107C184.29 40.0748 184.441 41.1108 184.837 42.0188C185.256 42.9035 185.862 43.5903 186.653 44.0792C187.468 44.5682 188.399 44.8126 189.447 44.8126C190.495 44.8126 191.379 44.5914 192.101 44.1491C192.846 43.7067 193.428 43.113 193.847 42.368L197.549 44.184C197.177 45.092 196.594 45.8952 195.803 46.5937C195.011 47.2921 194.068 47.8393 192.974 48.2351C191.903 48.6308 190.716 48.8287 189.412 48.8287ZM206.246 48.4097L215.221 22.3922H221.368L230.343 48.4097H225.174L223.323 42.822H213.266L211.38 48.4097H206.246ZM214.628 38.6313H221.961L217.631 25.6749H218.958L214.628 38.6313ZM233.238 48.4097V22.3922H236.94L251.259 41.6696L249.338 42.0537V22.3922H254.087V48.4097H250.351L236.242 28.9926L237.988 28.6085V48.4097H233.238ZM268.413 48.8287C266.76 48.8287 265.223 48.5261 263.803 47.9207C262.406 47.3154 261.196 46.4773 260.171 45.4063C259.17 44.3121 258.437 43.0432 257.971 41.5997L261.917 39.8885C262.546 41.3785 263.454 42.5543 264.641 43.4157C265.829 44.2539 267.168 44.6729 268.658 44.6729C269.496 44.6729 270.217 44.5449 270.823 44.2888C271.451 44.0094 271.929 43.6369 272.255 43.1713C272.604 42.7056 272.778 42.1468 272.778 41.495C272.778 40.7267 272.546 40.098 272.08 39.6091C271.638 39.0969 270.962 38.7011 270.054 38.4218L265.061 36.8153C263.035 36.1867 261.51 35.2438 260.486 33.9866C259.461 32.7293 258.949 31.2509 258.949 29.5514C258.949 28.0613 259.31 26.7459 260.032 25.6051C260.777 24.4643 261.801 23.5796 263.105 22.951C264.432 22.2991 265.945 21.9731 267.645 21.9731C269.205 21.9731 270.637 22.2525 271.94 22.8113C273.244 23.3468 274.362 24.1034 275.293 25.0813C276.247 26.0358 276.958 27.165 277.423 28.4688L273.512 30.2149C273 28.9111 272.231 27.91 271.207 27.2115C270.183 26.4898 268.995 26.1289 267.645 26.1289C266.853 26.1289 266.155 26.2686 265.549 26.548C264.944 26.8041 264.467 27.1766 264.118 27.6655C263.792 28.1312 263.629 28.6899 263.629 29.3418C263.629 30.0636 263.861 30.7038 264.327 31.2626C264.793 31.7981 265.503 32.2171 266.457 32.5198L271.242 34.0215C273.314 34.6967 274.862 35.6279 275.887 36.8153C276.934 38.0027 277.458 39.4694 277.458 41.2156C277.458 42.7056 277.074 44.021 276.306 45.1618C275.537 46.3027 274.478 47.199 273.128 47.8509C271.777 48.5028 270.206 48.8287 268.413 48.8287ZM286.248 48.4097L279.263 22.3922H284.362L289.845 44.5682H288.518L294.245 22.3922H299.169L304.862 44.5682H303.535L309.018 22.3922H314.116L307.132 48.4097H301.684L295.922 26.8274H297.458L291.696 48.4097H286.248ZM316.999 48.4097V22.3922H334.285V26.5829H321.748V33.2532H333.587V37.4439H321.748V44.2189H334.285V48.4097H316.999ZM337.768 48.4097V22.3922H347.442C349.211 22.3922 350.771 22.7181 352.121 23.37C353.495 23.9986 354.566 24.9299 355.334 26.1639C356.103 27.3745 356.487 28.8529 356.487 30.599C356.487 32.3918 356.056 33.9167 355.195 35.1739C354.356 36.4312 353.216 37.3624 351.772 37.9678L357.744 48.4097H352.366L345.975 36.9899L349.048 38.8059H342.518V48.4097H337.768ZM342.518 34.6152H347.512C348.373 34.6152 349.118 34.4522 349.747 34.1263C350.375 33.777 350.864 33.2997 351.213 32.6944C351.563 32.0891 351.737 31.3906 351.737 30.599C351.737 29.7842 351.563 29.0857 351.213 28.5037C350.864 27.8984 350.375 27.4327 349.747 27.1068C349.118 26.7575 348.373 26.5829 347.512 26.5829H342.518V34.6152Z" fill="white"/>
<defs>
<linearGradient id="paint0_linear_431_1233" x1="402" y1="44.0061" x2="0" y2="44.0061" gradientUnits="userSpaceOnUse">
<stop stop-color="#F7EEA6"/>
<stop offset="0.310096" stop-color="#FCB236"/>
<stop offset="0.64096" stop-color="#F3808E"/>
<stop offset="1" stop-color="#78AAC5"/>
</linearGradient>
</defs>
</svg>
